<svg width="24" height="19" viewBox="0 0 24 19" fill="none" xmlns="http://www.w3.org/2000/svg">
<g clip-path="url(#clip0_3674_17806)">
<path d="M24 5.96055V7.82171C23.985 7.84865 23.9625 7.87363 23.9569 7.90253C23.6606 9.36305 22.6013 10.2882 21.1622 10.3465C20.9606 10.3548 20.7033 10.2598 20.5725 10.3872C20.4385 10.5179 20.4249 10.7839 20.3583 10.9911C20.356 10.9989 20.3536 11.0067 20.3503 11.0141C20.2997 11.1458 20.3269 11.1953 20.4769 11.1919C20.9213 11.1826 21.3464 11.2879 21.7355 11.5112C22.2549 11.8085 22.7635 12.1269 23.2796 12.431C23.3808 12.4908 23.4103 12.5407 23.3433 12.6568C23.1052 13.0682 22.8928 13.4963 22.6425 13.8989C21.9746 14.9705 20.7117 15.4554 19.5281 15.1194C19.1461 15.0112 18.8124 14.8025 18.4777 14.5944C18.398 14.5449 18.3249 14.4886 18.2311 14.59C18.0699 14.7648 17.895 14.9264 17.7122 15.1067C18.1556 15.3599 18.5264 15.6827 18.7842 16.1225C19.0978 16.6573 19.3871 17.2073 19.6936 17.7471C19.7574 17.8588 19.7428 17.9112 19.635 17.9739C19.2464 18.1987 18.8696 18.4465 18.4753 18.6605C17.7122 19.0754 16.92 19.1033 16.1222 18.781C15.3769 18.4803 14.8781 17.9014 14.5308 17.1682C14.4535 17.0051 14.3738 16.9585 14.1867 17.0085C12.8349 17.3695 11.4741 17.4013 10.1096 17.0825C9.76518 17.0021 9.50221 17.1228 9.32065 17.4444C9.28127 17.5144 9.23814 17.583 9.19596 17.6511C8.40049 18.926 6.81893 19.3663 5.52658 18.6625C5.13283 18.448 4.7569 18.1977 4.36689 17.9753C4.23752 17.9014 4.2558 17.8343 4.31814 17.727C4.46393 17.4762 4.60268 17.2216 4.74002 16.9654C5.12955 16.2366 5.50783 15.4985 6.30002 15.1126C6.08393 14.9054 5.91611 14.637 5.6883 14.5581C5.4933 14.4905 5.28986 14.7634 5.07986 14.8647C5.07283 14.8682 5.06533 14.8711 5.0583 14.8745C3.71205 15.6151 2.09018 15.1532 1.29471 13.798C1.07861 13.4302 0.883145 13.0491 0.668457 12.6803C0.59252 12.55 0.616895 12.4913 0.740645 12.4193C1.21736 12.1416 1.68611 11.8492 2.16096 11.568C2.5608 11.331 2.99111 11.1826 3.45283 11.1978C3.70783 11.2061 3.69611 11.1076 3.6183 10.9225C3.54377 10.7447 3.57189 10.4949 3.43361 10.3837C3.29393 10.2721 3.07127 10.3524 2.88564 10.3475C1.42736 10.3117 0.343145 9.3797 0.0436133 7.90302C0.0375195 7.87412 0.0154883 7.84865 0.000488281 7.82122C0.000488281 7.20067 0.000488281 6.58061 0.000488281 5.96006C0.601895 5.96055 1.2033 5.96202 1.80471 5.96153C2.26643 5.96104 2.70611 6.06585 3.10502 6.30487C3.30143 6.42241 3.36986 6.40086 3.38674 6.16283C3.40127 5.963 3.56721 5.74015 3.48096 5.58244C3.39658 5.42865 3.16455 5.36351 2.99768 5.2587C1.89049 4.56419 1.36268 3.30693 1.64346 2.01734C1.80283 1.2861 2.25424 0.704242 2.58096 0.058713C2.63533 -0.0485486 2.6958 0.0146329 2.75299 0.0494072C3.27236 0.364335 3.80299 0.660162 4.30643 1.00105C5.07283 1.51972 5.49002 2.27153 5.58424 3.22464C5.65033 3.8927 5.44877 4.49219 5.19986 5.08727C4.56893 6.59335 4.44799 8.15574 4.78174 9.75291C5.58189 13.5796 9.07596 16.3243 13.0505 15.741C14.9189 15.4667 16.4752 14.5518 17.6775 13.031C19.0444 11.3031 19.5825 9.30917 19.3294 7.08019C19.2324 6.22846 18.9478 5.44187 18.6356 4.65725C18.0619 3.21632 18.563 1.69066 19.8506 0.895745C20.3006 0.618041 20.7586 0.35454 21.2063 0.0738961C21.3328 -0.00544809 21.3942 -0.00887654 21.4702 0.140506C21.6417 0.478454 21.8363 0.804157 22.0167 1.13721C22.8431 2.66238 22.4035 4.38689 20.9621 5.28221C20.8083 5.37771 20.5922 5.43943 20.5186 5.58146C20.438 5.7377 20.581 5.94831 20.6119 6.13883C20.6171 6.17116 20.6213 6.20348 20.625 6.23581C20.6424 6.38666 20.6888 6.42339 20.8327 6.33768C21.2672 6.07761 21.7392 5.95565 22.2427 5.96006C22.8286 5.96545 23.4141 5.96006 24 5.96006V5.96055Z" fill="#53FF8A"/>
<path d="M12.0085 14.2161C8.78961 14.2303 6.10602 11.4611 6.09477 8.11395C6.08305 4.65905 8.70148 1.87515 11.9799 1.85653C15.2087 1.83841 17.8941 4.61105 17.9054 7.97387C17.9166 11.4268 15.2954 14.2014 12.0085 14.2161ZM9.53727 11.1574H15.1407V9.72141H9.53727V11.1574ZM9.51383 8.56651H13.3613V7.13047H9.51383V8.56651ZM9.52367 5.97558H11.8388V4.53954H9.52367V5.97558Z" fill="#53FF8A"/>
</g>
<defs>
<clipPath id="clip0_3674_17806">
<rect width="24" height="19" fill="white"/>
</clipPath>
</defs>
</svg>
