<svg width="32" height="25" viewBox="0 0 32 25" fill="none" xmlns="http://www.w3.org/2000/svg">
<g clip-path="url(#clip0_3674_18084)">
<path d="M32.0001 7.661V10.0532C31.9801 10.0878 31.9501 10.1199 31.9426 10.1571C31.5476 12.0343 30.1351 13.2235 28.2164 13.2984C27.9476 13.3091 27.6045 13.1869 27.4301 13.3506C27.2514 13.5187 27.2332 13.8605 27.1445 14.1268C27.1414 14.1369 27.1382 14.147 27.1339 14.1564C27.0664 14.3258 27.1026 14.3893 27.3026 14.3849C27.8951 14.373 28.462 14.5083 28.9807 14.7954C29.6732 15.1775 30.3514 15.5867 31.0395 15.9776C31.1745 16.0544 31.2139 16.1186 31.1245 16.2678C30.807 16.7966 30.5239 17.3468 30.1901 17.8643C29.2995 19.2417 27.6157 19.8649 26.0376 19.4331C25.5282 19.2939 25.0832 19.0258 24.637 18.7582C24.5307 18.6946 24.4332 18.6222 24.3082 18.7526C24.0932 18.9773 23.8601 19.185 23.6164 19.4167C24.2076 19.7422 24.702 20.157 25.0457 20.7223C25.4639 21.4098 25.8495 22.1167 26.2582 22.8104C26.3432 22.954 26.3239 23.0213 26.1801 23.1019C25.662 23.3909 25.1595 23.7094 24.6339 23.9845C23.6164 24.5177 22.5601 24.5536 21.4964 24.1394C20.5026 23.7528 19.8376 23.0087 19.3745 22.0664C19.2714 21.8567 19.1651 21.7969 18.9157 21.8611C17.1132 22.3251 15.2989 22.366 13.4795 21.9562C13.0203 21.8529 12.6697 22.008 12.4276 22.4214C12.3751 22.5114 12.3176 22.5996 12.2614 22.6871C11.2007 24.3257 9.09198 24.8917 7.36886 23.987C6.84386 23.7113 6.34261 23.3896 5.82261 23.1038C5.65011 23.0088 5.67448 22.9225 5.75761 22.7846C5.95198 22.4623 6.13698 22.135 6.32011 21.8057C6.83948 20.869 7.34386 19.9203 8.40011 19.4242C8.11198 19.158 7.88823 18.813 7.58448 18.7116C7.32448 18.6248 7.05323 18.9754 6.77323 19.1057C6.76386 19.1101 6.75386 19.1139 6.74448 19.1183C4.94948 20.0701 2.78698 19.4765 1.72636 17.7346C1.43823 17.2618 1.17761 16.7721 0.891357 16.298C0.790107 16.1306 0.822607 16.055 0.987607 15.9625C1.62323 15.6056 2.24823 15.2297 2.88136 14.8684C3.41448 14.5637 3.98823 14.373 4.60386 14.3925C4.94386 14.4032 4.92823 14.2766 4.82448 14.0387C4.72511 13.8102 4.76261 13.4891 4.57823 13.3462C4.39198 13.2027 4.09511 13.3059 3.84761 13.2996C1.90323 13.2537 0.457607 12.0557 0.0582324 10.1577C0.0501074 10.1205 0.0207324 10.0878 0.000732422 10.0526C0.000732422 9.25495 0.000732422 8.45797 0.000732422 7.66037C0.802607 7.661 1.60448 7.66289 2.40636 7.66226C3.02198 7.66163 3.60823 7.79635 4.14011 8.10355C4.40198 8.25464 4.49323 8.22694 4.51573 7.92099C4.53511 7.66415 4.75636 7.37771 4.64136 7.17501C4.52886 6.97734 4.21948 6.89361 3.99698 6.75889C2.52073 5.86623 1.81698 4.25025 2.19136 2.59271C2.40386 1.65284 3.00573 0.904966 3.44136 0.0752552C3.51386 -0.0626101 3.59448 0.0185982 3.67073 0.0632943C4.36323 0.468077 5.07073 0.848309 5.74198 1.28646C6.76386 1.95312 7.32011 2.91944 7.44573 4.14449C7.53386 5.00315 7.26511 5.77369 6.93323 6.53856C6.09198 8.47434 5.93073 10.4825 6.37573 12.5354C7.44261 17.4538 12.1014 20.9817 17.4007 20.2319C19.892 19.8794 21.967 18.7034 23.5701 16.7488C25.3926 14.5278 26.1101 11.965 25.7726 9.10009C25.6432 8.00535 25.2639 6.99433 24.8476 5.98584C24.0826 4.13378 24.7507 2.17282 26.4676 1.15111C27.0676 0.79417 27.6782 0.455487 28.2751 0.0947704C28.4439 -0.00721218 28.5257 -0.0116188 28.627 0.180385C28.8557 0.614756 29.1151 1.03339 29.3557 1.46146C30.4576 3.4218 29.8714 5.63834 27.9495 6.78911C27.7445 6.91187 27.4564 6.99119 27.3582 7.17375C27.2507 7.37457 27.4414 7.64526 27.4826 7.89014C27.4895 7.93169 27.4951 7.97324 27.5001 8.01479C27.5232 8.20868 27.5851 8.2559 27.777 8.14573C28.3564 7.81145 28.9857 7.6547 29.657 7.66037C30.4382 7.66729 31.2189 7.66037 32.0001 7.66037V7.661Z" fill="#53FF8A"/>
<path d="M16.0113 18.2723C11.7194 18.2906 8.14127 14.7313 8.12627 10.4291C8.11065 5.98847 11.6019 2.41027 15.9731 2.38634C20.2781 2.36305 23.8588 5.92678 23.8738 10.2491C23.8888 14.6872 20.3938 18.2535 16.0113 18.2723ZM15.0613 10.2082C15.0613 10.3555 15.0613 10.4593 15.0613 10.5638C15.0613 11.4452 15.0675 12.3259 15.0569 13.2072C15.0544 13.4156 15.1175 13.4754 15.32 13.4697C15.7881 13.4559 16.2569 13.4603 16.7256 13.4678C16.8844 13.4703 16.9419 13.4244 16.9419 13.2557C16.9369 11.3048 16.9375 9.3539 16.9406 7.40301C16.9406 7.26451 16.9119 7.19023 16.7538 7.19212C16.2538 7.19841 15.7544 7.19589 15.2544 7.19338C15.1356 7.19338 15.0763 7.21793 15.0563 7.36209C14.9613 8.06212 14.665 8.39513 14.0075 8.55125C13.8619 8.58588 13.7981 8.6375 13.8019 8.79803C13.8119 9.26954 13.8163 9.74231 13.8006 10.2138C13.7938 10.4279 13.885 10.4512 14.0606 10.4417C14.3963 10.4241 14.7088 10.3083 15.0625 10.2082H15.0613Z" fill="#53FF8A"/>
</g>
<defs>
<clipPath id="clip0_3674_18084">
<rect width="32" height="24.4211" fill="white"/>
</clipPath>
</defs>
</svg>
